<svg width="1922" height="158" viewBox="0 0 1922 158" fill="none" xmlns="http://www.w3.org/2000/svg">
<path d="M42.9099 155.435C28.2355 143.237 15.0368 128.749 -0.000793457 117.134V0H1922V70.3069C1915.59 65.359 1908.49 53.7502 1903.04 46.6042C1885.74 23.9132 1882.88 36.032 1857.64 44.2918C1805.72 61.2712 1747.84 83.3145 1692.98 83.3145C1685.49 83.3145 1678.65 79.8961 1671.52 77.5333C1646.79 69.3463 1623.71 58.9002 1596.93 59.9009C1592.92 60.0504 1593.51 65.7998 1590.19 67.1273C1569.94 75.2269 1538.41 73.8249 1518.59 75.3654C1488.93 77.6707 1459.24 79.7457 1429.52 80.713C1389.93 82.0015 1346.73 86.9195 1310.77 61.9243C1304.72 57.716 1277.61 25.9831 1273.6 33.8857C1269.18 42.593 1264.88 42.0853 1257.88 46.8932C1248.73 53.1755 1233.28 51.6788 1223.95 52.9635C1176.69 59.4711 1129.47 73.0457 1082.24 78.1115C1066.31 79.8222 1050.24 75.8782 1034.35 75.5099C1017.82 75.127 999.942 78.4102 984.7 85.916C971.878 92.2299 962.477 106.078 949.274 111.354C937.875 115.907 925.714 114.532 913.847 114.532C899.449 114.532 891.094 103.559 878.796 94.7323C853.654 76.6875 823.639 48.9368 793.349 44.7254C787.352 43.8916 780.802 43.5334 775.884 48.194C769.18 54.5498 764.79 62.4832 758.546 69.4398C753.265 75.323 748.279 81.5329 742.953 87.3613C739.243 91.4216 734.376 94.8579 729.731 97.1893C699.276 112.473 665.682 120.912 633.556 129.419C596.626 139.199 554.843 153.555 516.3 153.555C509.126 153.555 503.187 150.812 496.466 148.064C459.621 132.997 405.103 112.699 367.11 122.482C361.009 124.053 359.788 129.521 355.884 134.044C353.162 137.197 351.3 141.946 347.9 144.161C343.505 147.026 338.091 145.679 333.431 148.497C318.822 157.328 302.453 156.157 286.403 156.157C270.768 156.157 263.916 151.411 250.478 144.017C227.422 131.328 181.443 96.321 155.051 113.521C145.589 119.688 138.723 129.06 127.983 133.899C115.613 139.474 106.838 121.114 97.9204 113.665C86.5841 104.196 85.8841 105.368 79.5933 115.897L79.4589 116.122C72.3174 128.075 65.6233 139.849 57.2551 150.809C52.4833 157.059 49.3412 160.78 42.9099 155.435Z" fill="#F2F2F2"/>
</svg>
