<svg width="1921" height="161" viewBox="0 0 1921 161" fill="none" xmlns="http://www.w3.org/2000/svg">
<path d="M39.0358 157.852C24.1476 145.5 10.7567 130.829 -4.5 119.067V0.450195H1945.5V71.647C1939 66.6365 1931.79 54.8808 1926.26 47.6443C1908.71 24.6661 1905.81 36.9383 1880.2 45.3026C1827.53 62.497 1768.8 84.8193 1713.14 84.8193C1705.54 84.8193 1698.61 81.3576 1691.37 78.9649C1666.28 70.6743 1642.86 60.0959 1615.69 61.1093C1611.63 61.2607 1612.22 67.0829 1608.86 68.4272C1588.31 76.6293 1556.32 75.2096 1536.21 76.7696C1506.12 79.104 1476 81.2053 1445.85 82.1848C1405.68 83.4897 1361.85 88.4699 1325.37 63.1583C1319.23 58.8968 1291.72 26.7622 1287.65 34.7648C1283.17 43.5823 1278.81 43.0682 1271.71 47.937C1262.42 54.2988 1246.75 52.7831 1237.28 54.0841C1189.33 60.6741 1141.42 74.4205 1093.51 79.5504C1077.34 81.2828 1061.04 77.2888 1044.92 76.9159C1028.15 76.5281 1010.01 79.8529 994.546 87.4537C981.537 93.8475 971.999 107.871 958.604 113.213C947.039 117.824 934.7 116.432 922.661 116.432C908.053 116.432 899.576 105.32 887.099 96.3816C861.591 78.1084 831.138 50.0064 800.407 45.7417C794.323 44.8974 787.677 44.5346 782.688 49.2542C775.886 55.6905 771.432 63.7243 765.097 70.7689C759.739 76.7266 754.681 83.0151 749.277 88.9173C745.513 93.029 740.575 96.5088 735.862 98.8697C704.964 114.347 670.88 122.892 638.286 131.507C600.818 141.411 558.427 155.949 519.322 155.949C512.044 155.949 506.018 153.171 499.199 150.388C461.818 135.13 406.505 114.576 367.959 124.482C361.769 126.073 360.53 131.61 356.569 136.191C353.808 139.384 351.918 144.193 348.469 146.436C344.01 149.337 338.517 147.973 333.789 150.827C318.967 159.769 302.36 158.584 286.076 158.584C270.213 158.584 263.261 153.778 249.628 146.29C226.236 133.44 179.587 97.9904 152.811 115.408C143.211 121.653 136.245 131.144 125.348 136.044C112.798 141.689 103.895 123.097 94.8477 115.554C83.3462 105.965 82.6361 107.152 76.2536 117.814L76.1172 118.042C68.8717 130.146 62.0801 142.069 53.59 153.168C48.7487 159.497 45.5608 163.265 39.0358 157.852Z" fill="#FFFAF3"/>
</svg>
