<svg width="397" height="288" viewBox="0 0 397 288" fill="none" xmlns="http://www.w3.org/2000/svg">
<g clip-path="url(#clip0_2241_194)">
<path d="M81.4147 9.63547C67.0617 18.8764 62.9328 23.202 62.9328 28.7073C62.9328 31.6565 61.3599 34.8024 59.0005 36.3753C54.8715 38.9313 53.6918 46.4027 57.0343 49.7452C58.6072 51.3181 56.8377 53.4809 51.529 56.8234C32.6538 69.4068 13.3854 93.1974 5.7174 113.449C3.55462 119.151 1.19524 131.144 0.605389 139.992C-4.89987 217.656 60.9666 275.264 168.123 286.668C233.006 293.55 303.591 277.82 345.077 247.148C360.413 235.744 378.699 214.706 386.17 199.763C395.411 181.478 397.77 168.108 396.787 141.958C396.001 121.903 395.411 119.347 388.726 104.994C380.468 88.0854 363.756 68.817 348.027 58.1997C339.572 52.3012 338.392 50.9249 339.375 46.4027C340.358 41.4873 336.426 34.8024 332.494 34.8024C331.707 34.8024 331.314 32.2464 331.904 29.1005C332.494 24.1851 331.314 22.4155 322.073 15.7306C301.232 0.197894 299.266 0.00126553 285.699 13.5678L275.475 23.5952L260.139 20.4494C221.406 12.1915 179.92 12.1915 137.057 20.4494L119.755 23.7919L109.531 13.5678C103.829 7.86592 97.3406 3.34375 95.1779 3.34375C93.0151 3.34375 86.7233 6.09637 81.4147 9.63547ZM146.888 71.1764C152.393 81.9903 160.454 99.2925 164.78 109.517C169.106 119.741 176.774 137.829 181.886 149.626C196.239 183.641 195.845 194.651 179.526 200.157C167.139 204.482 82.5944 203.892 58.6072 199.37C43.861 196.421 38.749 196.224 35.4065 197.994C31.8674 199.763 30.4911 199.567 27.3452 196.814C17.711 188.163 4.34111 149.626 9.0599 144.908C10.4362 143.531 20.0704 142.745 32.064 142.745C61.9497 142.745 94.588 150.609 136.074 167.518C139.417 168.895 139.417 168.501 136.467 161.423C134.108 155.918 132.732 143.728 131.749 119.347C130.569 90.6414 129.586 83.17 125.85 74.1256C120.148 59.576 119.362 58.9862 107.565 57.8065C101.863 57.2166 92.032 55.0538 85.5437 52.8911C79.0553 50.5317 71.3873 48.3689 68.438 47.5824C65.2922 46.9926 62.9328 45.223 62.9328 43.8467C62.9328 41.6839 64.5057 41.4873 71.3873 43.2569C75.9095 44.4366 82.9876 45.223 87.3132 45.0264C92.8185 44.8298 96.3576 46.0095 100.683 49.5486C105.795 53.8742 110.121 55.8403 110.121 53.6775C110.121 53.2843 106.582 49.352 102.059 44.8298C95.1779 38.1448 94.1948 35.9821 95.3745 31.4599C96.5542 26.7411 96.3576 26.5445 93.4083 28.9039C90.4591 31.2633 89.6726 31.2633 87.5098 28.314C85.1504 25.1682 84.9538 25.3648 84.1674 29.6903C83.3809 33.4261 84.1674 34.8024 87.1166 35.1956C93.2117 36.1787 93.2117 40.111 87.3132 41.4873C82.9876 42.667 80.8249 41.6839 75.5162 36.5719C71.7805 33.0328 68.8313 29.4937 68.8313 28.5106C68.8313 26.9377 87.9031 12.3881 92.4252 10.6185C94.3914 10.0287 102.256 16.5171 116.216 30.4768C133.911 48.5655 138.237 54.2674 146.888 71.1764ZM321.09 23.202L327.382 28.7073L320.304 35.7854C314.405 41.6839 312.439 42.667 307.917 41.4873C302.018 40.111 302.018 36.1787 308.113 35.1956C311.063 34.8024 311.849 33.4261 311.063 29.6903C310.276 25.3648 310.08 25.1682 307.72 28.314C305.557 31.2633 304.771 31.2633 301.822 28.9039C298.872 26.5445 298.676 26.7411 299.855 31.0667C300.839 34.8024 299.462 37.7516 293.171 44.4366C288.648 49.352 285.109 53.4809 285.109 53.8741C285.109 55.8403 289.435 53.8742 294.743 49.352C299.462 45.4197 302.018 44.6332 306.54 45.6163C309.883 46.2061 314.012 46.0095 315.978 45.0264C317.944 44.0433 322.466 42.667 326.005 42.0772C330.724 41.0941 332.297 41.4873 332.297 43.6501C332.297 45.223 329.938 46.9926 326.989 47.5824C323.843 48.1723 314.798 50.7283 306.737 53.4809C298.479 56.2335 288.648 58.3963 284.913 58.3963C275.868 58.3963 272.722 61.9354 267.414 79.041C264.071 90.0516 263.088 98.7027 262.695 122.297C262.302 142.745 261.122 154.345 258.959 160.244C256.207 168.108 256.207 168.698 259.156 167.322C300.445 150.02 356.088 138.223 380.468 141.762C388.923 143.138 389.316 143.531 389.316 149.43C389.316 163.586 381.058 184.427 370.244 197.797C366.508 202.319 366.312 202.319 361.003 198.977C356.088 195.635 355.105 195.635 339.572 198.977C319.517 203.106 260.729 205.072 232.219 202.319C213.148 200.55 211.182 199.96 206.856 194.848C199.974 186.983 201.547 176.759 214.131 146.874C228.877 112.269 246.966 72.1595 252.864 61.3456C258.173 52.1046 275.475 32.2464 291.008 17.6967L299.855 9.43885L307.327 13.7644C311.456 15.9272 317.551 20.2528 321.09 23.202ZM249.718 25.758C258.566 27.3309 266.431 29.1005 267.021 29.887C267.61 30.4768 265.448 33.8193 262.105 37.3584C253.454 46.5994 248.735 54.2674 239.101 73.5358C228.091 96.1467 198.598 165.159 198.598 168.698C198.598 171.254 186.604 144.908 175.594 117.381C160.258 79.4343 144.725 50.3351 132.142 36.5719C126.637 30.4768 127.03 30.0836 142.562 26.9377C172.448 20.646 217.67 20.2528 249.718 25.758ZM91.2455 61.5422C98.717 64.0982 107.368 66.261 110.317 66.261C115.036 66.261 116.216 67.6373 119.952 77.4681C123.294 86.3158 124.474 94.3771 125.064 112.466C125.653 125.443 126.243 140.582 126.44 146.087L127.03 156.311L114.25 151.396C86.92 141.172 61.7531 136.453 34.0302 136.256L8.07682 136.06L9.0599 131.144C15.155 103.225 29.3114 82.5801 55.8546 63.1151C68.6346 53.4809 67.8482 53.4809 91.2455 61.5422ZM338.982 60.3625C351.762 68.4238 365.919 83.17 375.553 97.9162C382.828 109.123 384.597 113.449 388.529 129.571L389.709 135.077H368.868C344.487 135.077 318.534 139.795 289.042 149.233L268.397 155.918L268.987 127.409C269.577 100.865 271.739 85.3328 277.048 71.5696C278.621 67.4407 280.39 66.261 284.716 66.261C287.862 66.261 294.35 64.8847 299.069 63.1151C308.9 59.576 324.433 54.8572 327.578 54.6606C328.562 54.464 333.87 57.2166 338.982 60.3625ZM209.412 205.465C215.9 208.808 268.397 212.347 292.187 211.167C304.181 210.577 323.449 208.415 334.853 206.645C351.959 203.892 356.481 203.696 358.447 205.662C363.559 210.971 327.775 235.941 298.872 246.951C230.45 273.298 146.495 270.152 83.3809 239.283C60.1801 227.88 33.8335 208.611 37.176 205.269C38.749 203.696 43.0745 203.696 52.7087 205.465C87.3132 211.364 111.497 212.544 146.691 210.184C180.903 207.825 188.767 206.055 194.666 198.977C197.025 196.224 197.615 196.224 201.351 199.567C203.71 201.73 207.249 204.286 209.412 205.465Z" fill="black"/>
</g>
<defs>
<clipPath id="clip0_2241_194">
<rect width="397" height="288" fill="white"/>
</clipPath>
</defs>
</svg>
