<svg width="1633" height="1836" viewBox="0 0 1633 1836" fill="none" xmlns="http://www.w3.org/2000/svg">
<path d="M80.0399 512.327H451.342C462.683 386.588 497.693 273.669 547.989 186.391C614.557 71.0059 709.231 0 816.233 0C923.235 0 1017.42 71.499 1084.48 186.391C1134.77 273.176 1169.78 386.588 1181.12 512.327H1551.93C1595.82 512.327 1635.27 548.324 1631.82 592.209L1557.36 1631.16C1547.99 1761.34 1466.13 1835.8 1347.3 1835.8H285.168C153.018 1835.8 82.9985 1743.59 75.109 1631.16L0.158296 592.702C-2.80028 548.817 36.1544 512.327 80.0399 512.327ZM544.044 512.327H1087.44C1076.59 403.353 1046.51 306.706 1003.61 232.742C954.3 146.45 887.239 92.7022 816.233 92.7022C744.734 92.7022 678.166 146.45 627.87 233.235C584.971 306.706 555.385 403.846 544.044 512.327Z" fill="black"/>
<path d="M546.509 1471.4C529.251 1459.57 524.813 1436.39 536.647 1419.13C548.481 1401.88 571.657 1397.44 588.915 1409.27C599.763 1416.67 611.105 1424.06 623.432 1431.46C710.217 1484.22 790.099 1510.36 856.667 1510.36C916.825 1510.36 965.641 1487.67 996.706 1441.82C998.679 1438.36 1000.65 1436.39 1001.14 1434.91C1010.02 1420.61 1016.43 1405.33 1020.87 1390.53C1029.74 1359.96 1028.26 1328.4 1015.94 1299.8C1002.62 1269.73 976.982 1240.63 937.042 1216.47C910.414 1200.2 877.377 1185.9 837.436 1175.05C735.858 1146.45 660.907 1106.02 620.474 1051.78C576.095 992.112 572.643 920.12 619.98 832.842C651.539 775.15 716.134 739.154 797.988 732.743C868.501 727.319 953.314 744.085 1039.61 787.97C1058.34 797.339 1065.74 820.022 1055.88 838.759C1046.02 857.497 1023.83 864.893 1005.09 855.031C931.618 817.556 861.598 803.256 803.412 807.694C747.692 812.132 705.286 833.828 686.548 868.345C654.99 926.037 655.483 971.402 681.124 1005.92C710.71 1045.86 772.347 1076.92 858.146 1101.09C904.497 1114.4 943.945 1131.17 976.489 1150.89C1030.24 1183.43 1066.23 1224.36 1085.46 1268.74C1105.19 1314.6 1107.65 1362.92 1094.34 1410.26C1088.42 1431.46 1079.05 1452.66 1066.23 1473.37C1063.27 1477.81 1061.3 1481.26 1059.82 1483.73C1013.96 1551.28 943.452 1584.81 857.653 1585.31C777.278 1585.31 683.59 1555.72 584.971 1495.56C572.643 1488.66 559.823 1480.77 546.509 1471.4Z" fill="white"/>
</svg>
